<!-- public/wavy-bg.svg -->
<svg width="100%" height="100%" xmlns="http://www.w3.org/2000/svg">
  <path d="M0 64L48 80C96 96 192 128 288 122.7C384 117 480 75 576 64C672 53 768 75 864 69.3C960 64 1056 32 1152 48C1248 64 1344 128 1440 144C1536 160 1632 128 1728 122.7C1824 117 1920 139 2016 144C2112 149 2208 139 2304 144C2400 149 2496 171 2592 160C2688 149 2784 107 2880 101.3C2976 96 3072 128 3168 149.3C3264 171 3360 181 3456 176C3552 171 3648 149 3744 154.7C3840 160 3936 192 4032 192C4128 192 4224 160 4320 128C4416 96 4512 64 4608 58.7C4704 53 4800 75 4896 80C4992 85 5088 75 5184 96C5280 117 5376 171 5472 181.3C5568 192 5664 160 5760 154.7C5856 149 5952 171 6048 170.7C6144 171 6240 149 6336 144C6432 139 6528 160 6624 138.7C6720 117 6816 53 6912 53.3C7008 53 7104 117 7200 138.7C7296 160 7392 128 7488 106.7C7584 85 7680 75 7776 101.3C7872 128 7968 192 8064 170.7C8160 149 8256 43 8352 26.7C8448 11 8544 85 8592 122.7L8640 160L8640 320L0 320Z" fill="#f3f4f6"></path>
</svg>
